<svg preserveAspectRatio="none" width="100%" height="100%" overflow="visible" style="display: block;" viewBox="0 0 47 29" fill="none" xmlns="http://www.w3.org/2000/svg">
<g id="Logo" clip-path="url(#clip0_0_15)">
<path id="Vector" d="M43.9966 3.56471C43.9966 3.59852 43.9966 3.64079 43.9878 3.66615C43.9437 3.99583 43.9437 4.32551 43.9701 4.66365C43.9878 4.74819 44.0054 4.83272 44.0759 4.90035C44.1903 5.02715 44.3665 5.00179 44.437 4.84963C44.4722 4.77355 44.4722 4.69747 44.4545 4.62139C44.3665 4.30015 44.3489 3.96202 44.3401 3.63233C44.3401 3.61542 44.3401 3.59006 44.3401 3.56471C44.437 3.55625 44.525 3.54779 44.6043 3.54779C44.666 3.53934 44.7188 3.53089 44.7629 3.50553C44.8949 3.4379 44.8949 3.2942 44.754 3.22657C44.7012 3.2012 44.6307 3.19275 44.5691 3.19275C44.3489 3.2012 44.1287 3.2012 43.9085 3.2012C43.8292 3.2012 43.7499 3.20966 43.6707 3.21811C43.6266 3.22657 43.5738 3.22657 43.5386 3.25193C43.4769 3.27728 43.4417 3.31955 43.4417 3.37872C43.4505 3.4379 43.4769 3.47172 43.5386 3.49708C43.5738 3.52244 43.6178 3.53089 43.6619 3.53089C43.7675 3.53934 43.8821 3.55625 43.9966 3.56471ZM46.4187 3.95356C46.4187 3.96202 46.4275 3.97047 46.4275 3.97047C46.4627 4.19871 46.498 4.41851 46.5244 4.63829C46.5332 4.71437 46.542 4.782 46.5949 4.84117C46.7093 4.98488 46.8855 4.96798 46.9647 4.81582C47 4.73973 47.0088 4.66365 46.9912 4.57912C46.9384 4.32551 46.9119 4.07191 46.8591 3.82676C46.8238 3.6746 46.7798 3.53089 46.7358 3.39564C46.7093 3.3111 46.6477 3.25192 46.542 3.24347C46.4363 3.22657 46.357 3.27728 46.313 3.35337C46.2602 3.42099 46.2161 3.48862 46.1809 3.56471C46.1192 3.69996 46.0664 3.83522 45.9959 3.96202C45.9871 3.99583 45.9783 4.02119 45.9607 4.04655C45.9519 4.02964 45.9431 4.02119 45.9431 4.02119C45.8286 3.80986 45.7229 3.59852 45.6084 3.39564C45.5907 3.37872 45.5819 3.36182 45.5731 3.34491C45.5203 3.26883 45.4587 3.22657 45.3618 3.22657C45.2737 3.23502 45.2032 3.28574 45.1592 3.36182C45.1416 3.39564 45.1416 3.42099 45.1328 3.45481C45.0975 3.72532 45.0535 3.99583 45.0183 4.26634C45.0006 4.41851 44.9918 4.57066 44.9918 4.72283C44.983 4.75664 44.9918 4.79891 45.0094 4.83272C45.0271 4.90035 45.0799 4.94262 45.1503 4.95107C45.2384 4.95953 45.3001 4.93417 45.3265 4.86654C45.3529 4.81582 45.3618 4.77355 45.3706 4.73128C45.4058 4.57912 45.4322 4.43541 45.4587 4.2917C45.4763 4.20717 45.4851 4.13954 45.5115 4.04655C45.5291 4.08037 45.5467 4.10573 45.5644 4.13108C45.6436 4.23253 45.7229 4.33397 45.8198 4.41851C45.9166 4.48613 45.9959 4.47768 46.0752 4.40159C46.0928 4.38469 46.1016 4.37624 46.1192 4.35933C46.1985 4.24098 46.2954 4.12263 46.3746 4.00428C46.3923 3.98737 46.4011 3.97047 46.4187 3.95356Z" fill="var(--fill-0, #3A3B7B)"/>
<path id="Vector_2" d="M26.1244 3.73078C26.0632 3.89144 26.0515 4.00718 26.0798 4.10338C26.111 4.2342 26.192 4.27703 26.302 4.24375C27.3365 3.99822 29.6051 4.69515 30.445 4.88939C30.6431 4.93017 30.8042 4.68476 30.669 4.46473C30.4718 4.25164 28.2042 3.33935 27.339 3.28961C26.9999 3.27121 26.3936 3.18775 26.1244 3.73078Z" fill="var(--fill-0, #3A3B7B)"/>
<path id="Vector_3" d="M34.9904 0.777609C35.1006 0.838687 35.1622 0.89695 35.1927 0.962049C35.238 1.04744 35.2141 1.10652 35.1379 1.13667C34.4541 1.457 33.5441 2.83609 33.1768 3.31172C33.0877 3.42114 32.8823 3.35755 32.8513 3.17762C32.8577 2.97417 33.6644 1.47756 34.1145 1.06993C34.2915 0.910778 34.5837 0.598506 34.9904 0.777609Z" fill="var(--fill-0, #3A3B7B)"/>
<path id="Vector_4" d="M29.5444 0.0987292C29.6769 0.00291244 29.8145 -0.0306646 29.8848 0.0316042C30.9166 0.878502 31.4637 2.21964 31.8026 3.44742C31.8153 3.47603 31.8161 3.51707 31.8059 3.5599C31.8017 3.59649 31.7738 3.63516 31.7296 3.66507C31.6823 3.6981 31.6416 3.70816 31.6225 3.6797C31.1703 3.08937 28.5875 0.792504 29.5444 0.0987292Z" fill="var(--fill-0, #3A3B7B)"/>
<path id="Vector_5" d="M7.69524 14.7818C7.94253 14.6051 8.21137 14.458 8.49586 14.3439C8.7935 14.2622 9.11075 14.2757 9.39967 14.3825C9.68851 14.4893 9.93338 14.6834 10.0971 14.9355C10.2435 15.187 10.3008 15.4774 10.2604 15.7629C10.2199 16.0484 10.084 16.3136 9.87289 16.5185C9.70926 16.6846 9.52348 16.8292 9.3205 16.9488C8.41582 17.5097 7.50308 18.0399 6.59039 18.6009C6.40363 18.7412 6.20551 18.8672 5.99793 18.9774C5.68217 19.1285 5.32132 19.169 4.97776 19.0918C4.6342 19.0147 4.32955 18.8247 4.11648 18.5548C3.95719 18.3637 3.82277 18.1547 3.71616 17.9323C2.8515 16.1881 1.95481 14.4514 1.12217 12.6764C0.737866 11.908 0.425627 11.0243 0.121393 10.1714C-0.010233 9.92354 -0.0359365 9.63624 0.0497553 9.37049C0.135447 9.10475 0.325774 8.88158 0.580249 8.74844C0.834727 8.61531 1.13327 8.58275 1.4124 8.65762C1.69152 8.73249 1.92921 8.90893 2.0749 9.14937C2.52271 9.72054 2.91911 10.3272 3.25981 10.9629C4.12448 12.4997 4.94912 14.0365 5.78176 15.5272C5.83024 15.6096 5.8837 15.6891 5.94188 15.7654C6.56859 15.5125 7.15803 15.1818 7.69524 14.7818Z" fill="var(--fill-0, #3A3B7B)"/>
<path id="Vector_6" d="M16.6354 14.2457C14.6579 16.4664 11.3433 15.9054 9.67804 13.047C8.4931 11.0184 8.28496 7.66806 10.863 5.55493C11.4135 5.11253 12.0717 4.81116 12.7764 4.67893C13.6404 4.56005 14.5215 4.70634 15.2936 5.09691C16.0657 5.48747 16.6895 6.10231 17.0758 6.85356C18.4848 9.31249 18.2847 12.4476 16.6354 14.2457ZM15.8348 9.06659C15.6247 8.46233 15.2032 7.94646 14.6418 7.60657C14.3242 7.38927 13.9382 7.28361 13.5489 7.30741C13.1595 7.3312 12.7906 7.48299 12.5042 7.7372C11.3594 8.71312 11.1191 11.0261 11.9518 12.4015C12.0579 12.6258 12.2138 12.8251 12.4085 12.9855C12.6033 13.146 12.8323 13.2636 13.0794 13.3302C13.3264 13.3968 13.5857 13.4108 13.839 13.3712C14.0923 13.3315 14.3335 13.2392 14.5458 13.1008C15.1664 12.6389 15.6217 12.003 15.8484 11.2815C16.0751 10.5598 16.062 9.78836 15.8108 9.0743L15.8348 9.06659Z" fill="var(--fill-0, #3A3B7B)"/>
<path id="Vector_7" d="M24.7056 10.0348C24.5031 10.0766 24.294 10.0791 24.0905 10.0421C23.887 10.0051 23.6932 9.92953 23.5207 9.81966C23.3697 9.73675 23.2397 9.62279 23.14 9.4859C23.0405 9.34901 22.9737 9.19267 22.9447 9.02803C22.9155 8.86345 22.9249 8.69473 22.9718 8.53398C23.0188 8.37322 23.1024 8.22447 23.2165 8.09838C23.4152 7.84503 23.6973 7.66365 24.0171 7.58357C24.8519 7.35104 25.7112 7.20927 26.579 7.16096C26.7697 7.13967 26.9629 7.15516 27.1472 7.2065C27.3316 7.25791 27.5033 7.34405 27.6525 7.46005C27.8016 7.57599 27.9252 7.7194 28.0158 7.8818C28.1064 8.0442 28.1623 8.22236 28.1803 8.40578C28.4304 9.30676 28.4578 10.2514 28.2603 11.1644C27.5398 14.1151 25.0578 15.1294 22.2717 14.1842C21.4896 13.9315 20.8039 13.4607 20.3022 12.8318C19.633 12.0745 19.1586 11.1771 18.9171 10.2116C18.7214 9.35178 18.7429 8.45963 18.9797 7.60947C19.2164 6.75931 19.6616 5.97581 20.2782 5.32443C20.8632 4.61646 21.6226 4.05928 22.4879 3.70308C23.0346 3.41383 23.6744 3.33159 24.2813 3.47255C24.4189 3.50912 24.5439 3.58037 24.6432 3.67891C24.7425 3.77745 24.8125 3.8997 24.846 4.03297C24.8795 4.16624 24.8752 4.30568 24.8337 4.43684C24.792 4.56799 24.7147 4.68608 24.6095 4.77886C24.4096 4.95256 24.1924 5.10699 23.961 5.2399C23.2492 5.67495 22.6298 6.23554 22.1356 6.89198C21.8116 7.31677 21.5885 7.80456 21.482 8.32096C21.3755 8.83735 21.3882 9.3699 21.5192 9.88116C21.7007 10.5782 22.1036 11.2039 22.672 11.6715C24.4334 13.2084 26.7231 11.7253 26.3228 9.62754C25.7384 9.76588 25.226 9.91187 24.7056 10.0348Z" fill="var(--fill-0, #3A3B7B)"/>
<path id="Vector_8" d="M35.466 14.3686C32.864 15.9055 29.9017 14.3686 29.2532 11.1413C28.7809 8.8361 29.6775 5.60875 32.816 4.37928C33.4837 4.12333 34.208 4.03346 34.9216 4.11802C35.779 4.26866 36.5655 4.67375 37.1702 5.27621C37.7748 5.87866 38.1674 6.64805 38.2922 7.476C38.8206 10.2192 37.6197 13.1469 35.466 14.3686ZM36.3708 9.19722C36.3699 8.55889 36.1347 7.94119 35.7062 7.45293C35.4772 7.15094 35.1461 6.93456 34.7695 6.84064C34.3927 6.74678 33.9938 6.78119 33.6406 6.93812C32.2315 7.52207 31.2388 9.6429 31.599 11.2028C31.6266 11.4476 31.7094 11.6837 31.8419 11.8945C31.9744 12.1054 32.1532 12.2859 32.366 12.4235C32.5787 12.5611 32.8202 12.6524 33.0736 12.6911C33.327 12.7297 33.5861 12.7149 33.8327 12.6474C34.5776 12.3977 35.2225 11.931 35.6774 11.3124C36.1325 10.6939 36.3748 9.95438 36.3708 9.19722Z" fill="var(--fill-0, #3A3B7B)"/>
<path id="Vector_9" d="M40.9235 15.0142C40.8842 15.2954 40.7302 15.5501 40.4952 15.7224C40.2602 15.8945 39.9636 15.9701 39.6706 15.9324C39.3775 15.8947 39.1121 15.7468 38.9327 15.5213C38.7532 15.2958 38.6746 15.0111 38.7138 14.7298C38.7531 14.4486 38.9072 14.1939 39.1421 14.0216C39.3771 13.8494 39.6738 13.7739 39.9668 13.8116C40.2598 13.8493 40.5252 13.9971 40.7047 14.2227C40.8841 14.4482 40.9629 14.7329 40.9235 15.0142ZM40.227 4.64822C40.3792 4.42502 40.6026 4.25504 40.8638 4.16365C41.1249 4.07225 41.4099 4.06433 41.6761 4.14107C41.9468 4.20606 42.1859 4.35832 42.3535 4.57234C42.5211 4.78638 42.607 5.04918 42.5968 5.31674C42.5615 5.74592 42.4946 6.17218 42.3967 6.59229C42.1325 8.01389 41.8763 9.43541 41.5961 10.8417C41.468 11.4026 41.2998 11.9405 41.1157 12.5091C41.0516 12.6868 40.9446 12.8475 40.8035 12.9778C40.7157 13.0759 40.6036 13.1511 40.4775 13.1965C40.3514 13.242 40.2155 13.2562 40.0822 13.2378C39.9489 13.2194 39.8226 13.169 39.7149 13.0914C39.6073 13.0137 39.5218 12.9112 39.4664 12.7934C39.3712 12.5821 39.3195 12.3551 39.3143 12.1249C39.3143 11.1721 39.3143 10.2116 39.3783 9.251C39.4872 7.88022 39.7012 6.51899 40.0188 5.17842C40.0562 4.99882 40.1267 4.82707 40.227 4.67127V4.64822Z" fill="var(--fill-0, #3A3B7B)"/>
<path id="Vector_10" fill-rule="evenodd" clip-rule="evenodd" d="M4.31266 21.189C4.21813 21.3915 4.19221 21.6173 4.2384 21.8346C4.26913 22.1211 4.33663 22.4028 4.43936 22.6735C4.56761 23.0048 4.71113 23.3325 4.88809 23.7364C4.92879 23.8294 4.97132 23.9264 5.01582 24.0285C5.25446 24.5757 5.55389 25.275 5.95329 26.287C6.06634 26.5745 6.16672 26.8643 6.26781 27.1562C6.30865 27.2741 6.34963 27.3924 6.39158 27.511C6.54196 27.9325 6.8007 28.3113 7.14366 28.6114C7.2893 28.7764 7.48247 28.8966 7.69907 28.9567C7.9199 29.018 8.15477 29.0141 8.37325 28.9456C8.59173 28.8769 8.78363 28.7468 8.92402 28.5721C9.06167 28.4008 9.14351 28.1944 9.15943 27.9787C9.24873 27.5586 9.21824 27.123 9.07107 26.718C8.83748 26.0456 8.57139 25.3721 8.26455 24.7134L8.26314 24.7105C7.75836 23.68 7.24525 22.6565 6.70787 21.6327L6.70385 21.6255C6.54653 21.3588 6.34209 21.1203 6.0997 20.9209C5.94234 20.7428 5.72529 20.6228 5.48559 20.5814C5.24078 20.5391 4.9883 20.5817 4.77321 20.7016C4.56974 20.8131 4.40845 20.9837 4.31266 21.189Z" fill="var(--fill-0, #3A3B7B)"/>
<path id="Vector_11" fill-rule="evenodd" clip-rule="evenodd" d="M12.0224 18.6513C11.2309 18.4546 10.4043 18.4259 9.60022 18.5674C8.9774 18.6262 8.36486 18.7641 7.93951 19.0372C7.72317 19.1763 7.54827 19.3547 7.45098 19.5816C7.35315 19.8097 7.34066 20.0706 7.42083 20.3612C7.5672 20.8936 7.75728 21.4113 7.94669 21.9273L7.97738 22.0109L7.97812 22.0127C8.54843 23.5118 9.12418 25.0057 9.70516 26.4945C9.77291 26.7292 9.86872 26.9555 9.99066 27.169L9.99294 27.1729C10.154 27.4382 10.3606 27.6754 10.604 27.8746C10.7257 27.9841 10.8763 28.0599 11.0395 28.0938C11.2043 28.128 11.3757 28.1181 11.5351 28.0651C11.6945 28.0122 11.8356 27.9182 11.9432 27.7935C12.049 27.6709 12.1183 27.5231 12.1437 27.3658C12.2487 26.9386 12.2151 26.4908 12.0472 26.0824C11.9949 25.945 11.9538 25.8045 11.9105 25.6567C11.896 25.6074 11.8814 25.5572 11.866 25.5062C13.1959 25.0072 14.6109 24.3363 15.1085 22.7756C15.3033 22.2363 15.3196 21.6523 15.1549 21.1036C14.9902 20.5544 14.6521 20.0676 14.1874 19.7102C13.5548 19.21 12.8159 18.8485 12.0224 18.6513ZM9.82851 20.5657C9.85469 20.5584 9.88108 20.5517 9.90753 20.5454C10.7733 20.4148 11.6592 20.5889 12.4019 21.0355C12.7292 21.254 12.8633 21.4967 12.8863 21.7303C12.9101 21.9708 12.819 22.2314 12.6359 22.4819C12.2901 22.9551 11.659 23.3339 11.0888 23.4045C10.6732 22.4859 10.2512 21.5301 9.82851 20.5657Z" fill="var(--fill-0, #3A3B7B)"/>
<path id="Vector_12" d="M17.2991 16.9698C18.2416 16.552 19.4092 16.4798 20.3228 16.7736C20.5529 16.8379 20.7525 16.9771 20.8875 17.1672C21.0217 17.3562 21.0836 17.5839 21.0629 17.8115C21.0616 17.9593 21.0238 18.1047 20.9527 18.2359C20.8803 18.3694 20.7755 18.4842 20.6471 18.5707C20.5187 18.6571 20.3705 18.7126 20.2151 18.7325C20.0596 18.7524 19.9015 18.736 19.754 18.6848L19.7428 18.6809L19.7322 18.6756C19.6567 18.6377 19.5766 18.6092 19.4937 18.5906L19.4884 18.5895C18.8457 18.4256 18.2395 18.6971 18.0181 19.0307C17.9124 19.1897 17.8993 19.3502 17.9873 19.4963C18.0815 19.6527 18.3125 19.8282 18.7801 19.9533C18.9086 19.9872 19.0404 20.0199 19.1741 20.0531C19.5438 20.145 19.928 20.2404 20.2995 20.3727L20.3009 20.3732C22.0148 20.9991 22.653 22.2953 22.4345 23.5145C22.2184 24.7202 21.1693 25.8174 19.5916 26.0763C19.0175 26.1984 18.4201 26.1746 17.8585 26.0073C17.2954 25.8394 16.7879 25.5331 16.3863 25.1187L16.3758 25.1079C16.249 24.9517 16.1638 24.7683 16.126 24.5737C16.0912 24.398 16.1095 24.2165 16.1787 24.0505C16.2474 23.8855 16.3637 23.7426 16.5138 23.6386C16.6723 23.5206 16.8634 23.4498 17.0634 23.435C17.2628 23.4203 17.4622 23.4619 17.6373 23.5546C17.8121 23.6357 17.9747 23.7391 18.1207 23.8621L18.1235 23.8643C18.3817 24.091 18.6941 24.15 18.9937 24.0953C19.2977 24.0398 19.5835 23.8672 19.7673 23.6382C19.95 23.4106 20.0233 23.1402 19.9363 22.8778C19.8487 22.6134 19.5854 22.3172 19.007 22.0696C18.8558 22.008 18.699 21.9583 18.5359 21.9099C18.4919 21.8968 18.4472 21.8839 18.402 21.8707C18.2814 21.8355 18.1573 21.7994 18.0356 21.7595C17.9519 21.7321 17.8687 21.7061 17.7864 21.6803C17.5614 21.61 17.3421 21.5415 17.131 21.4495C16.6715 21.2994 16.2746 21.0111 15.9992 20.6273C15.7227 20.242 15.5836 19.7812 15.6025 19.3138C15.604 18.1747 16.3515 17.3899 17.2991 16.9698Z" fill="var(--fill-0, #3A3B7B)"/>
<path id="Vector_13" d="M29.2487 16.8485C29.0659 16.7628 28.8638 16.7221 28.6607 16.7301C28.4574 16.7381 28.2595 16.7946 28.0847 16.8944C27.911 16.9935 27.7656 17.1323 27.6614 17.2985C27.5658 17.4384 27.4997 17.5949 27.4667 17.7592C27.4338 17.9234 27.4346 18.0921 27.469 18.2559C27.5031 18.4664 27.5408 18.6711 27.5781 18.873C27.6398 19.2071 27.6998 19.5337 27.7394 19.8666L27.7409 19.8751C27.8311 20.3973 27.8783 20.9254 27.8825 21.4547L27.8829 21.4622C27.9137 22.0337 27.7108 22.5942 27.3177 23.0245L27.3114 23.0322C27.1835 23.1895 27.0125 23.3096 26.8175 23.379C26.6225 23.4484 26.4112 23.4644 26.2073 23.4251C26.0034 23.3858 25.815 23.2929 25.6629 23.1566C25.5109 23.0204 25.4013 22.8457 25.3466 22.6532C25.2297 22.2474 25.1621 21.83 25.1449 21.4094L25.3445 18.3602C25.3474 18.3204 25.3508 18.2796 25.3542 18.2383C25.3618 18.1457 25.3696 18.0514 25.3728 17.9634C25.3775 17.8339 25.3735 17.7008 25.3421 17.5748C25.3099 17.446 25.2487 17.3235 25.1402 17.2191C25.0328 17.1159 24.8878 17.0397 24.7053 16.9878C24.3753 16.8961 24.0962 16.899 23.8637 16.9937C23.6311 17.0884 23.4717 17.2643 23.3589 17.4674C23.2469 17.6688 23.175 17.9073 23.1206 18.1462C23.0803 18.3234 23.0479 18.5094 23.017 18.6865C23.0064 18.7476 22.996 18.8075 22.9854 18.8657L22.9852 18.8674C22.8202 19.8386 22.7712 20.8248 22.8388 21.8067C22.8515 22.3373 22.9668 22.8611 23.1789 23.3513C23.4183 23.9837 23.8518 24.5317 24.4223 24.9229C24.9941 25.3148 25.6763 25.5308 26.3788 25.5422C27.0812 25.5536 27.7707 25.3599 28.3559 24.9868C28.9402 24.6142 29.393 24.0802 29.6544 23.4555C30.0202 22.6596 30.1919 21.7941 30.1565 20.9249C30.135 20.2903 30.099 19.6509 30.0632 19.0146C30.0456 18.7026 30.0281 18.3911 30.0124 18.0816C30.0045 17.7713 29.8978 17.4707 29.7068 17.2201C29.5885 17.0618 29.4311 16.934 29.2487 16.8485Z" fill="var(--fill-0, #3A3B7B)"/>
<path id="Vector_14" d="M35.7174 21.6296C35.6988 21.6522 35.6793 21.6756 35.6589 21.6999C35.5102 20.8768 35.3725 20.054 35.2345 19.23C35.185 18.9343 35.1353 18.6374 35.0852 18.3413L35.0796 18.3083L35.0613 18.2798C35.0269 18.226 35.0235 18.1734 35.0235 18.0611V18.0481L35.0214 18.0352C34.984 17.8033 34.8747 17.5874 34.7078 17.416C34.5412 17.2449 34.325 17.1259 34.0871 17.0742C33.8496 17.018 33.6 17.0304 33.3698 17.1099C33.1402 17.1892 32.94 17.3317 32.7943 17.5195C32.6732 17.6636 32.5739 17.8235 32.4995 17.9944C32.3306 18.3624 32.1603 18.7314 31.9895 19.1013L31.9865 19.1077C31.5601 20.0313 31.1308 20.9611 30.714 21.8982L30.7127 21.9012C30.4568 22.5088 30.2456 23.1491 30.0351 23.7873C29.9931 23.9147 29.951 24.0421 29.9087 24.1691C29.8326 24.3705 29.7994 24.5844 29.8108 24.7983C29.797 24.9898 29.8447 25.1808 29.9477 25.3455C30.0527 25.5135 30.2101 25.6458 30.3975 25.7236C30.5961 25.8072 30.8181 25.8249 31.0285 25.774C31.2384 25.7232 31.4247 25.6069 31.5583 25.4435C31.7288 25.2421 31.8755 25.0225 31.9952 24.7899C32.3483 24.0966 32.6857 23.395 33.0217 22.6963C33.1517 22.4261 33.2779 22.1841 33.4216 21.9205C33.4315 21.953 33.4416 21.9847 33.452 22.0165C33.6026 22.6528 33.8568 23.2623 34.2052 23.8227C34.2711 23.9414 34.363 24.0452 34.4744 24.1268C34.5872 24.2095 34.7174 24.2675 34.8559 24.2969C34.9945 24.3264 35.138 24.3265 35.2766 24.2973C35.415 24.2682 35.5456 24.2101 35.6584 24.1279L35.8818 23.9674L37.6156 22.5657L37.5131 23.1928C37.3724 24.0548 37.2327 24.9097 37.0843 25.7647C36.9873 26.1437 36.9874 26.5395 37.0847 26.9184C37.1269 27.1316 37.2343 27.3279 37.3933 27.4822C37.5537 27.6379 37.759 27.7436 37.9827 27.7858C38.2064 27.8279 38.4382 27.8045 38.6479 27.7187C38.8546 27.6341 39.0303 27.4927 39.1532 27.3124C39.4391 26.972 39.617 26.5598 39.6659 26.125C39.7395 25.511 39.8226 24.8887 39.9058 24.2665C40.0016 23.5493 40.0974 22.8324 40.1784 22.1292L40.1786 22.127C40.2565 21.3572 40.2942 20.5843 40.2916 19.811C40.3086 19.5666 40.2452 19.3231 40.1101 19.115C39.9746 18.9062 39.7738 18.7439 39.5365 18.651C39.2897 18.5433 39.0134 18.5145 38.7483 18.569C38.4849 18.623 38.2465 18.7563 38.0676 18.9493C37.7478 19.2332 37.4478 19.537 37.1695 19.8587L37.1676 19.8608C36.8638 20.2242 36.562 20.5947 36.2622 20.9628C36.08 21.1865 35.8982 21.4098 35.7174 21.6296Z" fill="var(--fill-0, #3A3B7B)"/>
</g>
<defs>
<clipPath id="clip0_0_15">
<rect width="47" height="29" fill="white"/>
</clipPath>
</defs>
</svg>
